<?xml version="1.0" encoding="UTF-8" standalone="no"?>
<!DOCTYPE svg PUBLIC "-//W3C//DTD SVG 1.1//EN" "http://www.w3.org/Graphics/SVG/1.1/DTD/svg11.dtd">
<svg width="100%" height="100%" viewBox="0 0 338 202" version="1.1" xmlns="http://www.w3.org/2000/svg" xmlns:xlink="http://www.w3.org/1999/xlink" xml:space="preserve" xmlns:serif="http://www.serif.com/" style="fill-rule:evenodd;clip-rule:evenodd;stroke-linejoin:round;stroke-miterlimit:2;">
    <g id="monochromatic" transform="matrix(0.956216,0,0,0.974575,0.614849,0.523859)">
        <rect x="-0.643" y="-0.538" width="353.477" height="207.27" style="fill:none;"/>
        <g transform="matrix(1.04579,0,0,1.02609,-1.01635,-1.3998)">
            <g id="rainbow" transform="matrix(1,0,0,1,0.356998,0.462475)">
                <path d="M169,105.539C139.319,105.539 114.288,125.647 106.743,153L10,153C18.601,72.654 86.557,10 169,10C251.443,10 319.399,72.654 328,153L231.257,153C223.712,125.647 198.681,105.539 169,105.539" style="fill:rgb(241,241,241);"/>
            </g>
            <g id="monochromatic1" serif:id="monochromatic" transform="matrix(1,0,0,1,10.357,192.462)">
                <path d="M26.055,-22.377C25.439,-24.188 23.243,-25.103 21.476,-24.052C21.457,-24.041 21.438,-24.029 21.42,-24.019C21.18,-23.878 21.062,-23.813 20.611,-23.266C20.257,-22.836 19.696,-22.107 18.709,-20.809C18.505,-20.541 18.283,-20.248 18.04,-19.928C17.641,-19.403 17.187,-18.804 16.67,-18.123C16.456,-17.843 16.233,-17.548 15.998,-17.239C15.404,-16.456 14.738,-15.582 13.989,-14.599C13.716,-14.97 13.455,-15.325 13.204,-15.666C11.589,-17.864 10.425,-19.459 9.573,-20.623C7.227,-23.826 7.235,-23.77 6.653,-24.095C4.58,-25.256 1.98,-23.764 1.98,-21.354L1.98,-3.14C1.98,-3.077 1.983,-3.015 1.987,-2.953C1.99,-2.904 1.995,-2.855 2,-2.807C2.001,-2.793 2.003,-2.78 2.004,-2.767C2.015,-2.679 2.029,-2.591 2.046,-2.506C2.049,-2.496 2.05,-2.485 2.053,-2.475C2.063,-2.429 2.073,-2.384 2.085,-2.339C2.089,-2.325 2.093,-2.311 2.097,-2.297C2.118,-2.222 2.141,-2.148 2.168,-2.075C2.175,-2.055 2.182,-2.036 2.189,-2.016C2.204,-1.978 2.219,-1.939 2.235,-1.901C2.246,-1.878 2.257,-1.855 2.267,-1.832C2.293,-1.775 2.321,-1.719 2.35,-1.664C2.364,-1.638 2.378,-1.612 2.393,-1.586C2.411,-1.555 2.428,-1.525 2.446,-1.495C2.476,-1.448 2.505,-1.402 2.536,-1.357C2.554,-1.331 2.573,-1.307 2.591,-1.282C2.613,-1.252 2.636,-1.222 2.66,-1.193C2.677,-1.169 2.695,-1.147 2.713,-1.124C2.751,-1.08 2.79,-1.037 2.829,-0.995C2.849,-0.974 2.868,-0.954 2.888,-0.934C2.918,-0.904 2.948,-0.875 2.979,-0.846C2.997,-0.829 3.015,-0.811 3.034,-0.795C3.039,-0.79 3.044,-0.786 3.049,-0.782C3.097,-0.74 3.144,-0.699 3.194,-0.66C3.201,-0.655 3.208,-0.65 3.215,-0.645C3.22,-0.641 3.226,-0.638 3.231,-0.634C3.239,-0.628 3.248,-0.622 3.256,-0.616C3.3,-0.584 3.345,-0.552 3.39,-0.522C3.403,-0.514 3.416,-0.505 3.428,-0.497C3.487,-0.459 3.546,-0.423 3.607,-0.389C3.616,-0.385 3.625,-0.381 3.633,-0.376C3.691,-0.345 3.749,-0.315 3.808,-0.287C3.877,-0.255 3.948,-0.226 4.02,-0.199C4.363,-0.071 4.733,0 5.12,0C5.893,0 6.6,-0.28 7.147,-0.742C7.557,-1.089 7.877,-1.539 8.067,-2.053C8.192,-2.391 8.261,-2.758 8.261,-3.14L8.261,-11.787C11.732,-7.068 11.638,-7.017 12.508,-6.567C12.534,-6.554 12.56,-6.542 12.586,-6.529C13.417,-6.13 14.354,-6.126 15.163,-6.464C15.675,-6.679 16.134,-7.03 16.482,-7.505L17.421,-8.738L19.015,-10.832L19.942,-12.049L19.942,-3.14C19.942,-2.694 20.036,-2.27 20.203,-1.886C20.37,-1.504 20.609,-1.163 20.905,-0.878C21.47,-0.335 22.237,0 23.082,0C24.116,0 25.032,-0.499 25.604,-1.27C25.846,-1.595 26.026,-1.968 26.128,-2.372C26.189,-2.618 26.223,-2.875 26.223,-3.14L26.223,-21.323C26.225,-21.699 26.165,-22.052 26.055,-22.377Z" style="fill:rgb(241,241,241);fill-rule:nonzero;"/>
                <path d="M49.013,-23.074C48.793,-23.212 48.568,-23.345 48.337,-23.472C46.932,-24.241 45.446,-24.72 43.947,-24.93L43.947,-24.931C43.42,-25.004 42.892,-25.045 42.365,-25.054C42.243,-25.055 42.12,-25.056 41.998,-25.054L41.997,-25.054C40.045,-25.03 38.122,-24.563 36.381,-23.698C36.337,-23.676 36.293,-23.654 36.25,-23.632C34.944,-22.965 33.743,-22.073 32.713,-20.973C32.669,-20.926 32.626,-20.878 32.583,-20.83C31.911,-20.091 31.316,-19.263 30.815,-18.35C30.297,-17.402 29.91,-16.417 29.648,-15.416C28.437,-10.782 29.916,-5.803 33.471,-2.583C34.206,-1.917 35.03,-1.326 35.938,-0.829C41.307,2.112 47.873,0.824 51.78,-3.567C52.415,-4.281 52.981,-5.077 53.459,-5.95C56.751,-11.962 54.741,-19.473 49.013,-23.074ZM47.95,-8.967C46.195,-5.762 42.159,-4.582 38.954,-6.337C35.749,-8.092 34.569,-12.128 36.324,-15.333C36.358,-15.394 36.393,-15.453 36.428,-15.512C36.447,-15.544 36.467,-15.574 36.486,-15.605C36.641,-15.859 36.811,-16.1 36.994,-16.326C37.095,-16.45 37.199,-16.57 37.307,-16.685C39.128,-18.624 41.986,-19.308 44.513,-18.335C44.787,-18.23 45.056,-18.107 45.32,-17.963C48.526,-16.208 49.705,-12.172 47.95,-8.967Z" style="fill:rgb(241,241,241);fill-rule:nonzero;"/>
                <path d="M79.639,-2.249C79.641,-2.255 79.643,-2.261 79.645,-2.266C79.647,-2.27 79.648,-2.274 79.649,-2.278C79.651,-2.282 79.652,-2.286 79.654,-2.29C79.656,-2.296 79.658,-2.302 79.66,-2.308C79.661,-2.311 79.661,-2.313 79.662,-2.316C79.665,-2.325 79.667,-2.334 79.671,-2.343L79.671,-2.345C79.674,-2.354 79.676,-2.363 79.679,-2.372C79.679,-2.374 79.68,-2.377 79.68,-2.379C79.682,-2.387 79.684,-2.395 79.686,-2.403C79.687,-2.406 79.688,-2.409 79.688,-2.412C79.69,-2.42 79.692,-2.429 79.693,-2.438C79.694,-2.441 79.694,-2.443 79.695,-2.446C79.697,-2.458 79.7,-2.469 79.701,-2.482C79.702,-2.482 79.702,-2.483 79.702,-2.483C79.704,-2.497 79.706,-2.512 79.708,-2.527C79.709,-2.528 79.709,-2.53 79.709,-2.532C79.711,-2.545 79.712,-2.558 79.714,-2.572C79.715,-2.577 79.715,-2.582 79.715,-2.586C79.717,-2.598 79.718,-2.611 79.719,-2.624C79.72,-2.629 79.72,-2.635 79.721,-2.641C79.722,-2.654 79.724,-2.668 79.725,-2.682C79.725,-2.688 79.726,-2.694 79.726,-2.7C79.728,-2.718 79.729,-2.738 79.73,-2.758L79.73,-2.763C79.764,-3.253 79.772,-4.284 79.772,-6.799L79.772,-7.225C79.771,-9.239 79.766,-12.121 79.764,-16.276C79.763,-17.015 79.763,-17.794 79.763,-18.615C79.762,-19.48 79.762,-20.392 79.763,-21.354C79.763,-23.088 78.356,-24.494 76.622,-24.494C74.923,-24.494 73.54,-23.144 73.484,-21.459C73.483,-21.424 73.482,-21.389 73.482,-21.354L73.482,-11.697C73.31,-11.899 73.142,-12.098 72.976,-12.293C72.882,-12.404 72.79,-12.512 72.699,-12.62C72.658,-12.668 72.616,-12.717 72.575,-12.765C72.463,-12.898 72.352,-13.029 72.242,-13.159C72.224,-13.18 72.206,-13.201 72.188,-13.223C72.08,-13.35 71.974,-13.475 71.869,-13.599C71.841,-13.631 71.814,-13.663 71.787,-13.696C71.195,-14.394 70.644,-15.045 70.131,-15.65C68.605,-17.453 67.421,-18.854 66.495,-19.949C66.444,-20.009 66.394,-20.069 66.345,-20.126C66.337,-20.136 66.329,-20.146 66.32,-20.156C66.173,-20.33 66.032,-20.496 65.897,-20.654C65.885,-20.67 65.872,-20.685 65.859,-20.701C65.802,-20.768 65.746,-20.833 65.692,-20.898C65.679,-20.913 65.667,-20.927 65.654,-20.942C65.598,-21.009 65.542,-21.074 65.489,-21.137C65.486,-21.14 65.483,-21.143 65.482,-21.145C65.478,-21.149 65.475,-21.153 65.472,-21.157C65.405,-21.236 65.341,-21.311 65.278,-21.385C65.267,-21.397 65.258,-21.409 65.248,-21.421C65.184,-21.495 65.122,-21.569 65.062,-21.639C65.059,-21.643 65.055,-21.647 65.051,-21.651C64.923,-21.802 64.802,-21.945 64.689,-22.076C64.682,-22.085 64.675,-22.093 64.668,-22.101C64.619,-22.158 64.572,-22.214 64.525,-22.267C64.519,-22.276 64.511,-22.284 64.505,-22.292C64.457,-22.348 64.411,-22.402 64.366,-22.453C64.363,-22.457 64.359,-22.461 64.356,-22.465C64.258,-22.578 64.167,-22.683 64.083,-22.78C64.082,-22.782 64.08,-22.784 64.078,-22.786C64.039,-22.831 64.002,-22.874 63.965,-22.915C63.961,-22.92 63.957,-22.925 63.952,-22.931C63.917,-22.97 63.884,-23.008 63.852,-23.045C63.849,-23.048 63.845,-23.052 63.843,-23.055C63.737,-23.175 63.645,-23.278 63.563,-23.368C63.56,-23.371 63.557,-23.375 63.554,-23.378C63.529,-23.405 63.506,-23.43 63.484,-23.455C63.481,-23.457 63.479,-23.46 63.476,-23.462C63.402,-23.542 63.338,-23.61 63.281,-23.667C63.279,-23.669 63.277,-23.671 63.276,-23.673C63.259,-23.69 63.242,-23.706 63.227,-23.721C63.224,-23.723 63.223,-23.725 63.221,-23.727C63.17,-23.777 63.125,-23.818 63.084,-23.852C63.083,-23.853 63.082,-23.855 63.08,-23.856C63.069,-23.866 63.057,-23.875 63.046,-23.884C63.044,-23.886 63.043,-23.887 63.041,-23.888C63.004,-23.918 62.97,-23.942 62.937,-23.964C62.936,-23.965 62.934,-23.966 62.933,-23.966C62.924,-23.973 62.915,-23.978 62.905,-23.984C62.903,-23.985 62.902,-23.986 62.9,-23.987C62.89,-23.993 62.881,-23.999 62.871,-24.005C62.87,-24.005 62.87,-24.005 62.869,-24.006C62.847,-24.019 62.825,-24.031 62.803,-24.043C62.801,-24.044 62.8,-24.044 62.799,-24.045C62.786,-24.052 62.773,-24.059 62.759,-24.066C62.754,-24.069 62.747,-24.072 62.742,-24.075C62.737,-24.078 62.732,-24.081 62.726,-24.084C62.714,-24.09 62.701,-24.097 62.688,-24.104C62.627,-24.138 62.565,-24.17 62.503,-24.199C62.482,-24.208 62.461,-24.217 62.44,-24.226C62.399,-24.245 62.356,-24.263 62.315,-24.28C62.29,-24.29 62.265,-24.298 62.24,-24.308C62.202,-24.322 62.164,-24.335 62.125,-24.348C62.099,-24.356 62.072,-24.364 62.045,-24.372C62.009,-24.383 61.971,-24.393 61.934,-24.403C61.907,-24.41 61.88,-24.416 61.853,-24.422C61.815,-24.431 61.778,-24.438 61.74,-24.445C61.714,-24.45 61.688,-24.455 61.661,-24.459C61.621,-24.466 61.581,-24.47 61.541,-24.475C61.518,-24.478 61.494,-24.482 61.469,-24.484C61.419,-24.489 61.368,-24.492 61.316,-24.494C61.304,-24.495 61.292,-24.496 61.279,-24.496C61.219,-24.498 61.16,-24.498 61.1,-24.496C61.08,-24.496 61.059,-24.495 61.039,-24.494C60.998,-24.492 60.957,-24.489 60.917,-24.486C60.895,-24.484 60.873,-24.482 60.851,-24.479C60.809,-24.475 60.767,-24.469 60.725,-24.463C60.707,-24.461 60.689,-24.459 60.671,-24.455C60.613,-24.446 60.555,-24.434 60.498,-24.422C60.483,-24.418 60.469,-24.414 60.454,-24.411C60.41,-24.4 60.367,-24.389 60.324,-24.377C60.303,-24.371 60.283,-24.365 60.262,-24.358C60.224,-24.347 60.186,-24.334 60.149,-24.321C60.129,-24.314 60.109,-24.307 60.09,-24.3C60.044,-24.283 59.999,-24.265 59.955,-24.246C59.944,-24.242 59.934,-24.238 59.924,-24.233C59.87,-24.21 59.817,-24.185 59.765,-24.158C59.748,-24.15 59.732,-24.141 59.715,-24.132C59.678,-24.113 59.642,-24.093 59.606,-24.072C59.588,-24.062 59.57,-24.051 59.551,-24.04C59.516,-24.018 59.48,-23.996 59.446,-23.973C59.43,-23.963 59.415,-23.953 59.399,-23.943C59.351,-23.91 59.303,-23.875 59.257,-23.84C59.248,-23.833 59.239,-23.825 59.23,-23.819C59.192,-23.789 59.155,-23.758 59.118,-23.726C59.102,-23.713 59.088,-23.7 59.073,-23.686C59.042,-23.659 59.012,-23.631 58.982,-23.603C58.967,-23.588 58.953,-23.574 58.939,-23.559C58.904,-23.525 58.872,-23.491 58.84,-23.455C58.831,-23.446 58.823,-23.437 58.814,-23.428C58.776,-23.384 58.737,-23.338 58.7,-23.291C58.69,-23.279 58.679,-23.264 58.67,-23.251C58.643,-23.216 58.616,-23.181 58.592,-23.145C58.58,-23.128 58.568,-23.111 58.557,-23.094C58.533,-23.058 58.51,-23.022 58.487,-22.985C58.478,-22.969 58.467,-22.954 58.458,-22.938C58.427,-22.886 58.398,-22.833 58.37,-22.778C58.367,-22.773 58.365,-22.768 58.362,-22.762C58.337,-22.713 58.314,-22.663 58.292,-22.612C58.283,-22.594 58.277,-22.575 58.269,-22.557C58.253,-22.517 58.237,-22.476 58.222,-22.435C58.214,-22.416 58.207,-22.397 58.201,-22.377C58.184,-22.331 58.17,-22.284 58.157,-22.236C58.153,-22.223 58.148,-22.21 58.145,-22.196C58.128,-22.136 58.113,-22.074 58.1,-22.012C58.097,-21.996 58.094,-21.98 58.091,-21.964C58.082,-21.917 58.074,-21.868 58.066,-21.82C58.063,-21.798 58.061,-21.777 58.058,-21.755C58.052,-21.709 58.047,-21.662 58.044,-21.616C58.042,-21.596 58.04,-21.575 58.039,-21.555C58.035,-21.488 58.031,-21.422 58.031,-21.354L58.031,-3.14C58.031,-3.089 58.033,-3.039 58.035,-2.989C58.036,-2.973 58.038,-2.957 58.039,-2.941C58.04,-2.907 58.043,-2.873 58.046,-2.84C58.048,-2.821 58.05,-2.802 58.052,-2.783C58.056,-2.753 58.06,-2.722 58.064,-2.692C58.067,-2.672 58.07,-2.653 58.073,-2.634C58.078,-2.604 58.083,-2.573 58.089,-2.544C58.093,-2.525 58.096,-2.507 58.1,-2.489C58.107,-2.456 58.114,-2.424 58.121,-2.392C58.126,-2.377 58.129,-2.362 58.133,-2.347C58.145,-2.301 58.157,-2.255 58.172,-2.209C58.175,-2.198 58.179,-2.187 58.183,-2.176C58.194,-2.142 58.205,-2.108 58.218,-2.074C58.224,-2.056 58.232,-2.038 58.238,-2.019C58.249,-1.993 58.259,-1.967 58.269,-1.941C58.277,-1.922 58.286,-1.902 58.295,-1.882C58.305,-1.859 58.316,-1.835 58.326,-1.812C58.336,-1.792 58.345,-1.771 58.355,-1.752C58.366,-1.729 58.378,-1.707 58.389,-1.685C58.4,-1.665 58.41,-1.645 58.421,-1.624C58.432,-1.604 58.445,-1.583 58.457,-1.562C58.469,-1.542 58.48,-1.522 58.492,-1.502C58.506,-1.48 58.52,-1.459 58.534,-1.437C58.559,-1.4 58.583,-1.363 58.609,-1.327C58.62,-1.311 58.631,-1.295 58.642,-1.28C58.659,-1.258 58.676,-1.236 58.692,-1.214C58.704,-1.2 58.715,-1.185 58.726,-1.171C58.744,-1.149 58.762,-1.127 58.781,-1.106C58.791,-1.093 58.803,-1.08 58.814,-1.067C58.834,-1.045 58.853,-1.023 58.873,-1.001C58.883,-0.991 58.893,-0.98 58.903,-0.97C58.926,-0.947 58.948,-0.924 58.971,-0.901C58.975,-0.897 58.98,-0.892 58.985,-0.888C59.07,-0.805 59.161,-0.726 59.255,-0.653C59.259,-0.651 59.262,-0.648 59.266,-0.645C59.295,-0.623 59.324,-0.601 59.354,-0.58C59.361,-0.575 59.368,-0.57 59.376,-0.565C59.405,-0.545 59.435,-0.525 59.465,-0.505C59.471,-0.5 59.479,-0.496 59.486,-0.491C59.518,-0.471 59.549,-0.452 59.582,-0.433C59.585,-0.431 59.588,-0.429 59.592,-0.427C59.774,-0.321 59.966,-0.233 60.168,-0.165C60.172,-0.163 60.177,-0.162 60.182,-0.16C60.22,-0.148 60.257,-0.136 60.295,-0.125C60.301,-0.123 60.306,-0.122 60.31,-0.121C60.35,-0.11 60.389,-0.099 60.429,-0.089L60.43,-0.089C60.668,-0.031 60.916,0 61.172,0C61.428,0 61.676,-0.031 61.914,-0.089C61.955,-0.099 61.994,-0.11 62.034,-0.121C62.039,-0.122 62.044,-0.123 62.048,-0.125C62.087,-0.136 62.125,-0.148 62.162,-0.16C62.167,-0.162 62.171,-0.163 62.176,-0.165C62.378,-0.233 62.571,-0.321 62.752,-0.427C62.755,-0.429 62.759,-0.431 62.763,-0.433C62.795,-0.452 62.826,-0.471 62.858,-0.491C62.864,-0.496 62.872,-0.501 62.879,-0.505C62.909,-0.525 62.939,-0.545 62.969,-0.565C62.976,-0.57 62.983,-0.575 62.99,-0.58C63.02,-0.601 63.049,-0.623 63.078,-0.645C63.082,-0.648 63.085,-0.651 63.089,-0.653C63.183,-0.726 63.274,-0.804 63.359,-0.888C63.364,-0.892 63.368,-0.897 63.374,-0.901C63.396,-0.924 63.419,-0.947 63.44,-0.97C63.451,-0.98 63.461,-0.991 63.471,-1.001C63.49,-1.023 63.511,-1.045 63.53,-1.067C63.541,-1.08 63.552,-1.093 63.564,-1.106C63.582,-1.127 63.6,-1.149 63.618,-1.171C63.629,-1.185 63.641,-1.2 63.652,-1.214C63.669,-1.236 63.686,-1.258 63.702,-1.28C63.713,-1.295 63.724,-1.311 63.735,-1.327C63.761,-1.363 63.786,-1.4 63.809,-1.437C63.824,-1.459 63.838,-1.48 63.852,-1.502C63.863,-1.522 63.875,-1.542 63.887,-1.562C63.899,-1.583 63.911,-1.604 63.923,-1.624C63.934,-1.645 63.944,-1.665 63.955,-1.685C63.966,-1.707 63.978,-1.729 63.989,-1.752C63.998,-1.771 64.008,-1.792 64.018,-1.812C64.029,-1.835 64.039,-1.859 64.05,-1.882C64.058,-1.902 64.067,-1.922 64.075,-1.942C64.086,-1.967 64.096,-1.994 64.106,-2.019C64.113,-2.038 64.12,-2.056 64.126,-2.074C64.138,-2.108 64.15,-2.142 64.16,-2.176C64.165,-2.188 64.169,-2.198 64.172,-2.209C64.186,-2.255 64.199,-2.301 64.21,-2.347C64.214,-2.362 64.218,-2.377 64.222,-2.393C64.23,-2.424 64.237,-2.456 64.244,-2.489C64.248,-2.507 64.252,-2.526 64.255,-2.544C64.261,-2.574 64.266,-2.604 64.271,-2.634C64.274,-2.653 64.277,-2.672 64.28,-2.692C64.284,-2.722 64.288,-2.753 64.292,-2.783C64.294,-2.802 64.295,-2.821 64.298,-2.84C64.301,-2.873 64.303,-2.907 64.305,-2.941C64.306,-2.957 64.308,-2.973 64.308,-2.989C64.311,-3.039 64.312,-3.089 64.312,-3.14L64.312,-12.797C64.443,-12.643 64.586,-12.474 64.74,-12.293C64.912,-12.09 65.099,-11.869 65.296,-11.637C65.869,-10.961 66.536,-10.175 67.243,-9.342C67.354,-9.211 67.466,-9.079 67.58,-8.945C68.297,-8.099 69.045,-7.217 69.77,-6.362C69.891,-6.22 70.012,-6.077 70.131,-5.937C70.195,-5.862 70.259,-5.787 70.322,-5.712C70.377,-5.647 70.432,-5.582 70.486,-5.518C70.551,-5.442 70.616,-5.366 70.679,-5.291C71.835,-3.929 72.862,-2.717 73.516,-1.947C73.532,-1.928 73.548,-1.909 73.564,-1.891C73.983,-1.398 74.237,-1.098 74.253,-1.079C74.381,-0.932 74.519,-0.802 74.663,-0.686C74.666,-0.685 74.668,-0.683 74.67,-0.681C75.055,-0.372 75.49,-0.173 75.939,-0.075C75.943,-0.074 75.946,-0.073 75.949,-0.073C76.004,-0.061 76.058,-0.051 76.114,-0.042C76.12,-0.041 76.126,-0.04 76.133,-0.039C76.186,-0.03 76.239,-0.024 76.292,-0.018C76.3,-0.017 76.307,-0.017 76.314,-0.016C76.368,-0.011 76.422,-0.007 76.477,-0.005C77.789,0.049 79.108,-0.713 79.592,-2.12C79.594,-2.126 79.596,-2.133 79.598,-2.139C79.612,-2.18 79.626,-2.214 79.638,-2.247C79.638,-2.248 79.639,-2.249 79.639,-2.249Z" style="fill:rgb(241,241,241);fill-rule:nonzero;"/>
                <path d="M102.545,-23.074C102.325,-23.212 102.1,-23.345 101.869,-23.472C100.464,-24.241 98.978,-24.72 97.479,-24.93L97.479,-24.931C96.952,-25.004 96.424,-25.045 95.897,-25.054C95.775,-25.055 95.652,-25.056 95.53,-25.054L95.529,-25.054C93.577,-25.03 91.654,-24.563 89.913,-23.698C89.869,-23.676 89.825,-23.654 89.782,-23.632C88.476,-22.965 87.275,-22.073 86.245,-20.973C86.201,-20.926 86.158,-20.878 86.115,-20.83C85.443,-20.091 84.848,-19.263 84.347,-18.35C83.829,-17.402 83.442,-16.417 83.18,-15.416C81.969,-10.782 83.448,-5.803 87.003,-2.583C87.738,-1.917 88.562,-1.326 89.47,-0.829C94.839,2.112 101.405,0.824 105.312,-3.567C105.947,-4.281 106.513,-5.077 106.991,-5.95C110.283,-11.962 108.273,-19.473 102.545,-23.074ZM101.482,-8.967C99.727,-5.762 95.691,-4.582 92.486,-6.337C89.281,-8.092 88.101,-12.128 89.856,-15.333C89.89,-15.394 89.925,-15.453 89.96,-15.512C89.979,-15.544 89.999,-15.574 90.018,-15.605C90.173,-15.859 90.343,-16.1 90.526,-16.326C90.627,-16.45 90.731,-16.57 90.839,-16.685C92.66,-18.624 95.518,-19.308 98.045,-18.335C98.319,-18.23 98.588,-18.107 98.852,-17.963C102.058,-16.208 103.237,-12.172 101.482,-8.967Z" style="fill:rgb(241,241,241);fill-rule:nonzero;"/>
                <path d="M127.478,-7.522C127.06,-7.13 126.597,-6.802 126.101,-6.54C126.072,-6.525 126.043,-6.511 126.014,-6.496C125.794,-6.385 125.567,-6.286 125.336,-6.201C125.219,-6.158 125.101,-6.118 124.982,-6.082L124.981,-6.082C124.862,-6.046 124.741,-6.013 124.62,-5.984C124.144,-5.872 123.654,-5.813 123.156,-5.813C123.009,-5.813 122.863,-5.82 122.718,-5.829C122.507,-5.844 122.299,-5.869 122.095,-5.903C120.201,-6.225 118.593,-7.391 117.671,-8.999C117.617,-9.094 117.564,-9.191 117.515,-9.289C117.514,-9.29 117.513,-9.291 117.512,-9.293C117.463,-9.392 117.416,-9.491 117.371,-9.592C117.112,-10.18 116.939,-10.814 116.87,-11.479C116.863,-11.543 116.859,-11.607 116.855,-11.671C116.844,-11.824 116.836,-11.977 116.836,-12.132C116.836,-12.323 116.846,-12.511 116.863,-12.697C116.885,-12.948 116.921,-13.193 116.972,-13.435C117.037,-13.74 117.122,-14.037 117.229,-14.324C117.301,-14.518 117.382,-14.707 117.471,-14.891C117.614,-15.182 117.777,-15.46 117.961,-15.724C118.026,-15.819 118.095,-15.911 118.166,-16.003C118.168,-16.006 118.171,-16.009 118.173,-16.013C118.244,-16.103 118.317,-16.191 118.392,-16.278C118.582,-16.496 118.787,-16.701 119.005,-16.891C119.086,-16.962 119.169,-17.031 119.254,-17.098C119.255,-17.098 119.256,-17.099 119.256,-17.099C119.341,-17.166 119.428,-17.231 119.516,-17.294C120.545,-18.021 121.801,-18.451 123.156,-18.451C123.179,-18.451 123.202,-18.45 123.225,-18.45C123.284,-18.449 123.342,-18.449 123.401,-18.447C123.954,-18.425 124.495,-18.332 125.015,-18.173C125.951,-17.886 126.814,-17.382 127.537,-16.686C128.786,-15.483 130.774,-15.522 131.977,-16.772C133.18,-18.021 133.142,-20.009 131.892,-21.212C129.533,-23.482 126.43,-24.731 123.156,-24.731C121.693,-24.731 120.289,-24.481 118.982,-24.02C118.752,-23.939 118.525,-23.849 118.301,-23.755C118.275,-23.744 118.248,-23.734 118.221,-23.722C118.115,-23.677 118.009,-23.63 117.904,-23.581C116.887,-23.113 115.943,-22.514 115.094,-21.804C114.658,-21.441 114.246,-21.049 113.864,-20.631C113.86,-20.627 113.856,-20.624 113.853,-20.62C113.663,-20.411 113.481,-20.197 113.305,-19.976C113.238,-19.892 113.173,-19.808 113.108,-19.722C113.091,-19.7 113.074,-19.677 113.057,-19.655C112.996,-19.572 112.934,-19.49 112.875,-19.406C112.576,-18.985 112.304,-18.545 112.057,-18.088C111.902,-17.8 111.758,-17.507 111.626,-17.206L111.625,-17.206C111.417,-16.734 111.237,-16.248 111.087,-15.748C111.056,-15.647 111.027,-15.545 110.999,-15.442C110.988,-15.402 110.978,-15.362 110.967,-15.322C110.945,-15.235 110.922,-15.149 110.901,-15.062C110.812,-14.689 110.741,-14.311 110.685,-13.926C110.681,-13.894 110.676,-13.862 110.672,-13.83C110.609,-13.366 110.572,-12.895 110.562,-12.417C110.559,-12.324 110.556,-12.232 110.556,-12.139L110.556,-12.131C110.556,-10.981 110.711,-9.865 111.002,-8.805C111.034,-8.688 111.067,-8.573 111.103,-8.458L111.103,-8.456C111.369,-7.586 111.727,-6.757 112.165,-5.979C112.165,-5.977 112.166,-5.976 112.166,-5.975C112.697,-5.031 113.346,-4.163 114.094,-3.389C114.561,-2.904 115.067,-2.455 115.606,-2.05C117.712,-0.47 120.326,0.469 123.156,0.469C126.371,0.469 129.432,-0.743 131.776,-2.942C133.041,-4.129 133.104,-6.116 131.918,-7.381C130.73,-8.646 128.743,-8.709 127.478,-7.522Z" style="fill:rgb(241,241,241);fill-rule:nonzero;"/>
                <path d="M153.761,-24.494C152.026,-24.494 150.62,-23.088 150.62,-21.354L150.62,-15.387L142.216,-15.387L142.216,-21.354C142.216,-23.088 140.81,-24.494 139.076,-24.494C137.342,-24.494 135.936,-23.088 135.936,-21.354L135.936,-3.14C135.936,-1.406 137.342,0 139.076,0C140.81,0 142.216,-1.406 142.216,-3.14L142.216,-9.107L150.62,-9.107L150.62,-3.14C150.62,-2.415 150.867,-1.748 151.279,-1.216L151.28,-1.216C151.512,-0.917 151.797,-0.661 152.121,-0.462C152.267,-0.372 152.421,-0.295 152.582,-0.23C152.903,-0.099 153.251,-0.02 153.615,-0.004C153.663,-0.001 153.712,0 153.761,0C154.41,0 155.013,-0.197 155.514,-0.534C155.587,-0.584 155.658,-0.637 155.727,-0.692C155.729,-0.694 155.732,-0.696 155.734,-0.698C155.803,-0.754 155.87,-0.813 155.934,-0.875C156.53,-1.446 156.901,-2.25 156.901,-3.14L156.901,-21.354C156.901,-23.088 155.495,-24.494 153.761,-24.494Z" style="fill:rgb(241,241,241);fill-rule:nonzero;"/>
                <path d="M180.811,-1.53C180.815,-1.536 180.819,-1.543 180.823,-1.55C180.853,-1.601 180.882,-1.653 180.909,-1.706C180.909,-1.707 180.91,-1.707 180.91,-1.707C180.967,-1.819 181.016,-1.933 181.06,-2.049C181.061,-2.053 181.062,-2.057 181.064,-2.06C181.083,-2.113 181.101,-2.167 181.117,-2.221C181.119,-2.228 181.121,-2.234 181.123,-2.24C181.14,-2.297 181.156,-2.354 181.169,-2.411L181.169,-2.413C181.198,-2.534 181.22,-2.657 181.234,-2.78C181.234,-2.781 181.235,-2.782 181.235,-2.783C181.241,-2.842 181.246,-2.901 181.25,-2.96C181.25,-2.966 181.25,-2.97 181.25,-2.975C181.264,-3.221 181.248,-3.468 181.203,-3.711C181.202,-3.715 181.202,-3.719 181.201,-3.723C181.181,-3.831 181.155,-3.937 181.123,-4.043L181.123,-4.043C181.109,-4.09 181.094,-4.136 181.078,-4.182C181.024,-4.335 180.959,-4.484 180.88,-4.629C180.879,-4.632 180.878,-4.634 180.876,-4.638C180.839,-4.705 180.8,-4.771 180.758,-4.836C180.75,-4.848 180.743,-4.859 180.735,-4.871C180.692,-4.936 180.647,-4.999 180.6,-5.061L179.726,-6.191L179.608,-6.344L179.421,-6.586L178.957,-7.186L178.856,-7.316L177.758,-8.738L177.537,-9.024C179.78,-10.547 181.256,-13.12 181.256,-16.03C181.256,-16.067 181.253,-16.103 181.253,-16.14C181.235,-17.507 180.892,-18.795 180.298,-19.933C179.911,-20.675 179.418,-21.351 178.839,-21.944C177.987,-22.815 176.95,-23.503 175.79,-23.944C175.268,-24.143 174.72,-24.291 174.154,-24.383C173.71,-24.456 173.255,-24.495 172.79,-24.495L164.024,-24.495C162.29,-24.495 160.883,-23.088 160.883,-21.354L160.883,-3.14C160.883,-3.062 160.888,-2.984 160.894,-2.906C160.901,-2.805 160.913,-2.705 160.93,-2.607C160.935,-2.577 160.94,-2.548 160.946,-2.519C160.95,-2.496 160.955,-2.474 160.961,-2.452C160.967,-2.426 160.972,-2.4 160.979,-2.374C160.985,-2.351 160.991,-2.328 160.997,-2.305C161.004,-2.28 161.011,-2.256 161.018,-2.231C161.025,-2.208 161.033,-2.185 161.04,-2.163C161.048,-2.139 161.056,-2.114 161.064,-2.091C161.072,-2.068 161.081,-2.046 161.089,-2.024C161.098,-2 161.107,-1.977 161.117,-1.954C161.126,-1.932 161.135,-1.91 161.144,-1.888C161.154,-1.865 161.165,-1.842 161.175,-1.82C161.185,-1.798 161.195,-1.777 161.205,-1.756C161.216,-1.733 161.228,-1.711 161.24,-1.688C161.251,-1.668 161.261,-1.648 161.272,-1.627C161.285,-1.604 161.299,-1.582 161.312,-1.559C161.323,-1.54 161.333,-1.52 161.345,-1.502C161.36,-1.477 161.377,-1.452 161.393,-1.427C161.403,-1.412 161.413,-1.396 161.423,-1.381C161.449,-1.342 161.477,-1.304 161.504,-1.266C161.516,-1.251 161.528,-1.237 161.539,-1.222C161.557,-1.199 161.575,-1.176 161.594,-1.153C161.607,-1.136 161.621,-1.121 161.634,-1.105C161.652,-1.084 161.67,-1.063 161.688,-1.043C161.702,-1.027 161.717,-1.011 161.732,-0.995C161.75,-0.976 161.768,-0.957 161.787,-0.938C161.801,-0.923 161.818,-0.907 161.834,-0.892C161.852,-0.873 161.871,-0.855 161.89,-0.838C161.907,-0.822 161.923,-0.808 161.939,-0.793C161.959,-0.776 161.979,-0.758 161.999,-0.741C162.015,-0.727 162.032,-0.713 162.05,-0.7C162.07,-0.683 162.091,-0.667 162.112,-0.65C162.129,-0.637 162.146,-0.624 162.164,-0.611C162.186,-0.595 162.208,-0.579 162.231,-0.563C162.248,-0.552 162.264,-0.539 162.282,-0.528C162.306,-0.512 162.331,-0.496 162.357,-0.48C162.372,-0.47 162.388,-0.46 162.404,-0.451C162.436,-0.431 162.469,-0.412 162.503,-0.394C162.511,-0.389 162.52,-0.383 162.529,-0.379C162.572,-0.356 162.614,-0.334 162.658,-0.313C162.672,-0.306 162.686,-0.3 162.7,-0.293C162.73,-0.279 162.76,-0.265 162.791,-0.252C162.808,-0.245 162.826,-0.238 162.844,-0.231C162.871,-0.219 162.899,-0.208 162.927,-0.197C162.946,-0.191 162.965,-0.184 162.985,-0.177C163.012,-0.168 163.039,-0.159 163.067,-0.15C163.087,-0.143 163.107,-0.137 163.127,-0.131C163.154,-0.123 163.182,-0.115 163.209,-0.107C163.23,-0.102 163.25,-0.097 163.271,-0.092C163.299,-0.085 163.327,-0.079 163.355,-0.073C163.376,-0.068 163.397,-0.064 163.418,-0.06C163.446,-0.054 163.475,-0.049 163.504,-0.044C163.525,-0.041 163.545,-0.037 163.566,-0.034C163.596,-0.03 163.627,-0.026 163.658,-0.023C163.677,-0.02 163.697,-0.017 163.717,-0.016C163.751,-0.012 163.785,-0.01 163.819,-0.008C163.836,-0.007 163.853,-0.005 163.87,-0.005C163.921,-0.002 163.973,0 164.024,0C164.1,0 164.175,-0.004 164.25,-0.009C164.264,-0.01 164.279,-0.011 164.293,-0.012C164.368,-0.019 164.443,-0.027 164.517,-0.039C164.517,-0.039 164.518,-0.039 164.518,-0.039C164.783,-0.081 165.037,-0.156 165.275,-0.26C165.282,-0.263 165.288,-0.266 165.294,-0.268C165.338,-0.288 165.382,-0.308 165.425,-0.33C165.435,-0.335 165.446,-0.341 165.456,-0.346C165.495,-0.366 165.533,-0.386 165.571,-0.408C165.583,-0.415 165.594,-0.421 165.606,-0.428C165.643,-0.449 165.678,-0.471 165.714,-0.494C165.725,-0.501 165.737,-0.509 165.748,-0.516C165.785,-0.541 165.821,-0.565 165.857,-0.591C165.866,-0.598 165.875,-0.604 165.883,-0.61C166.003,-0.698 166.116,-0.794 166.222,-0.898C166.403,-1.076 166.563,-1.275 166.697,-1.493L166.698,-1.493C166.724,-1.536 166.749,-1.579 166.773,-1.623C166.774,-1.624 166.775,-1.626 166.776,-1.627C166.799,-1.669 166.821,-1.712 166.843,-1.756C166.844,-1.758 166.845,-1.761 166.847,-1.764C166.867,-1.806 166.886,-1.849 166.906,-1.892C166.908,-1.896 166.91,-1.901 166.912,-1.905C166.929,-1.946 166.946,-1.988 166.962,-2.031C166.964,-2.037 166.967,-2.043 166.969,-2.05C166.984,-2.09 166.998,-2.131 167.011,-2.172C167.014,-2.181 167.018,-2.189 167.02,-2.198C167.032,-2.237 167.043,-2.276 167.054,-2.316C167.057,-2.327 167.061,-2.338 167.063,-2.348C167.073,-2.387 167.082,-2.426 167.091,-2.464C167.093,-2.477 167.097,-2.49 167.099,-2.502C167.107,-2.54 167.113,-2.577 167.12,-2.616C167.122,-2.63 167.125,-2.644 167.127,-2.658C167.133,-2.695 167.137,-2.732 167.142,-2.769C167.144,-2.785 167.146,-2.801 167.148,-2.817C167.151,-2.854 167.154,-2.891 167.156,-2.928C167.158,-2.945 167.159,-2.962 167.16,-2.978C167.163,-3.032 167.165,-3.086 167.165,-3.14L167.165,-7.565L170.726,-7.565L171.451,-6.627L172.504,-5.265L173.161,-4.415L174.358,-2.867L174.543,-2.627L175.631,-1.22C175.676,-1.162 175.722,-1.107 175.769,-1.054C175.784,-1.037 175.799,-1.022 175.814,-1.005C175.848,-0.968 175.883,-0.932 175.919,-0.897C175.936,-0.88 175.953,-0.864 175.97,-0.848C176.008,-0.812 176.046,-0.778 176.085,-0.745C176.1,-0.732 176.114,-0.72 176.129,-0.708C176.184,-0.663 176.24,-0.62 176.297,-0.579C176.298,-0.579 176.298,-0.578 176.299,-0.578C176.355,-0.538 176.412,-0.501 176.471,-0.465C176.486,-0.455 176.502,-0.447 176.517,-0.437C176.563,-0.411 176.608,-0.385 176.655,-0.361C176.672,-0.352 176.689,-0.343 176.706,-0.334C176.756,-0.309 176.807,-0.285 176.859,-0.263C176.87,-0.258 176.882,-0.253 176.893,-0.248C177.011,-0.197 177.132,-0.155 177.254,-0.12C177.309,-0.105 177.364,-0.091 177.42,-0.078C177.447,-0.071 177.475,-0.067 177.503,-0.061C177.532,-0.056 177.562,-0.049 177.592,-0.044C177.634,-0.037 177.676,-0.032 177.719,-0.026C177.734,-0.024 177.75,-0.021 177.766,-0.019C177.795,-0.016 177.824,-0.015 177.854,-0.012C177.941,-0.005 178.029,0 178.117,0C178.261,0 178.404,-0.012 178.546,-0.031C178.546,-0.031 178.547,-0.031 178.547,-0.032C178.607,-0.04 178.666,-0.049 178.725,-0.062C178.738,-0.064 178.75,-0.067 178.762,-0.069C178.818,-0.081 178.874,-0.094 178.93,-0.109C178.943,-0.112 178.954,-0.116 178.966,-0.119C179.065,-0.147 179.163,-0.18 179.26,-0.218C179.281,-0.226 179.303,-0.234 179.324,-0.243C179.36,-0.258 179.395,-0.274 179.43,-0.291C179.468,-0.308 179.507,-0.326 179.544,-0.345C179.575,-0.361 179.605,-0.377 179.635,-0.394C179.679,-0.419 179.723,-0.444 179.767,-0.471C179.79,-0.486 179.814,-0.5 179.838,-0.516C179.905,-0.56 179.971,-0.606 180.036,-0.656C180.11,-0.713 180.181,-0.774 180.248,-0.836C180.248,-0.836 180.249,-0.836 180.249,-0.837C180.289,-0.875 180.329,-0.913 180.367,-0.952C180.367,-0.952 180.367,-0.952 180.368,-0.953C180.496,-1.085 180.611,-1.226 180.712,-1.374C180.715,-1.379 180.718,-1.384 180.722,-1.389C180.753,-1.435 180.782,-1.482 180.811,-1.53ZM172.791,-18.214C173.995,-18.214 174.975,-17.234 174.975,-16.03C174.975,-15.533 174.806,-15.076 174.526,-14.709C174.127,-14.186 173.499,-13.846 172.791,-13.846L172.407,-13.842L172.402,-13.842C172.369,-13.844 172.336,-13.844 172.303,-13.845C172.291,-13.845 172.279,-13.846 172.268,-13.846L167.165,-13.846L167.165,-18.214L172.791,-18.214Z" style="fill:rgb(241,241,241);fill-rule:nonzero;"/>
                <path d="M203.381,-23.074C203.161,-23.212 202.936,-23.345 202.705,-23.472C201.3,-24.241 199.814,-24.72 198.315,-24.93L198.315,-24.931C197.788,-25.004 197.26,-25.045 196.733,-25.054C196.611,-25.055 196.488,-25.056 196.366,-25.054L196.365,-25.054C194.413,-25.03 192.49,-24.563 190.749,-23.698C190.705,-23.676 190.661,-23.654 190.618,-23.632C189.312,-22.965 188.111,-22.073 187.081,-20.973C187.037,-20.926 186.994,-20.878 186.951,-20.83C186.279,-20.091 185.684,-19.263 185.183,-18.35C184.665,-17.402 184.278,-16.417 184.016,-15.416C182.805,-10.782 184.284,-5.803 187.839,-2.583C188.574,-1.917 189.398,-1.326 190.306,-0.829C195.675,2.112 202.241,0.824 206.148,-3.567C206.783,-4.281 207.349,-5.077 207.827,-5.95C211.119,-11.962 209.109,-19.473 203.381,-23.074ZM202.318,-8.967C200.563,-5.762 196.527,-4.582 193.322,-6.337C190.117,-8.092 188.937,-12.128 190.692,-15.333C190.726,-15.394 190.761,-15.453 190.796,-15.512C190.815,-15.544 190.835,-15.574 190.854,-15.605C191.009,-15.859 191.179,-16.1 191.362,-16.326C191.463,-16.45 191.567,-16.57 191.675,-16.685C193.496,-18.624 196.354,-19.308 198.881,-18.335C199.155,-18.23 199.424,-18.107 199.688,-17.963C202.894,-16.208 204.073,-12.172 202.318,-8.967Z" style="fill:rgb(241,241,241);fill-rule:nonzero;"/>
                <path d="M236.475,-22.377C235.859,-24.188 233.663,-25.103 231.896,-24.052C231.877,-24.041 231.858,-24.029 231.84,-24.019C231.6,-23.878 231.482,-23.813 231.031,-23.266C230.677,-22.836 230.116,-22.107 229.129,-20.809C228.925,-20.541 228.703,-20.248 228.46,-19.928C228.061,-19.403 227.607,-18.804 227.09,-18.123C226.877,-17.843 226.653,-17.548 226.418,-17.239C225.824,-16.456 225.158,-15.582 224.409,-14.599C224.136,-14.97 223.875,-15.325 223.624,-15.666C222.009,-17.864 220.845,-19.459 219.993,-20.623C217.647,-23.826 217.655,-23.77 217.073,-24.095C215,-25.256 212.4,-23.764 212.4,-21.354L212.4,-3.14C212.4,-3.077 212.403,-3.015 212.407,-2.953C212.41,-2.904 212.415,-2.855 212.42,-2.807C212.421,-2.793 212.423,-2.78 212.424,-2.767C212.435,-2.679 212.449,-2.591 212.466,-2.506C212.469,-2.496 212.47,-2.485 212.473,-2.475C212.483,-2.429 212.493,-2.384 212.505,-2.339C212.509,-2.325 212.513,-2.311 212.517,-2.297C212.538,-2.222 212.561,-2.148 212.588,-2.075C212.595,-2.055 212.602,-2.036 212.609,-2.016C212.624,-1.978 212.639,-1.939 212.655,-1.901C212.666,-1.878 212.677,-1.855 212.687,-1.832C212.713,-1.775 212.741,-1.719 212.77,-1.664C212.784,-1.638 212.798,-1.612 212.813,-1.586C212.831,-1.555 212.848,-1.525 212.866,-1.495C212.896,-1.448 212.925,-1.402 212.956,-1.357C212.974,-1.331 212.993,-1.307 213.011,-1.282C213.033,-1.252 213.056,-1.222 213.08,-1.193C213.098,-1.169 213.115,-1.147 213.134,-1.124C213.171,-1.08 213.21,-1.037 213.249,-0.995C213.269,-0.974 213.288,-0.954 213.308,-0.934C213.338,-0.904 213.368,-0.875 213.399,-0.846C213.417,-0.829 213.435,-0.811 213.454,-0.795C213.459,-0.79 213.464,-0.786 213.469,-0.782C213.517,-0.74 213.564,-0.699 213.614,-0.66C213.621,-0.655 213.628,-0.65 213.635,-0.645C213.64,-0.641 213.646,-0.638 213.651,-0.634C213.659,-0.628 213.668,-0.622 213.676,-0.616C213.72,-0.584 213.765,-0.552 213.81,-0.522C213.823,-0.514 213.836,-0.505 213.848,-0.497C213.907,-0.459 213.966,-0.423 214.027,-0.389C214.036,-0.385 214.045,-0.381 214.053,-0.376C214.111,-0.345 214.169,-0.315 214.228,-0.287C214.297,-0.255 214.368,-0.226 214.44,-0.199C214.783,-0.071 215.153,0 215.54,0C216.313,0 217.02,-0.28 217.567,-0.742C217.977,-1.089 218.297,-1.539 218.487,-2.053C218.612,-2.391 218.681,-2.758 218.681,-3.14L218.681,-11.787C222.152,-7.068 222.058,-7.017 222.928,-6.567C222.954,-6.554 222.98,-6.542 223.006,-6.529C223.837,-6.13 224.774,-6.126 225.583,-6.464C226.095,-6.679 226.554,-7.03 226.902,-7.505L227.841,-8.738L229.435,-10.832L230.362,-12.049L230.362,-3.14C230.362,-2.694 230.456,-2.27 230.623,-1.886C230.79,-1.504 231.029,-1.163 231.325,-0.878C231.89,-0.335 232.657,0 233.502,0C234.536,0 235.452,-0.499 236.024,-1.27C236.266,-1.595 236.446,-1.968 236.548,-2.372C236.609,-2.618 236.643,-2.875 236.643,-3.14L236.643,-21.323C236.645,-21.699 236.585,-22.052 236.475,-22.377Z" style="fill:rgb(241,241,241);fill-rule:nonzero;"/>
                <path d="M263.446,-4.563L261.763,-7.877L259.991,-11.367L259.635,-12.067L259.282,-12.763L258.589,-14.128L258.235,-14.824L257.542,-16.188L257.189,-16.885L256.495,-18.25L256.142,-18.946L255.447,-20.312L255.093,-21.009L254.399,-22.376L254.195,-22.777C254.145,-22.877 254.087,-22.972 254.027,-23.065C253.725,-23.531 253.309,-23.902 252.826,-24.149C252.39,-24.371 251.903,-24.495 251.395,-24.495C250.92,-24.495 250.462,-24.386 250.048,-24.189C249.557,-23.955 249.128,-23.596 248.813,-23.14C248.734,-23.025 248.66,-22.904 248.596,-22.777L248.433,-22.457L247.737,-21.087L247.382,-20.388L246.688,-19.021L246.335,-18.324L245.64,-16.957L245.287,-16.261L244.594,-14.896L244.24,-14.2L243.547,-12.835L243.192,-12.139L242.741,-11.248L239.345,-4.563C238.56,-3.017 239.176,-1.127 240.722,-0.341C242.269,0.444 244.159,-0.173 244.945,-1.718L245.697,-3.201L257.094,-3.201L257.847,-1.718C258.401,-0.628 259.504,0.001 260.65,0.001C261.128,0.001 261.613,-0.11 262.069,-0.341C263.616,-1.127 264.232,-3.017 263.446,-4.563ZM249.224,-10.144L249.6,-10.885L250.343,-12.349L250.729,-13.106L251.395,-14.42L252.066,-13.1L252.453,-12.338L253.2,-10.867L253.578,-10.124L253.821,-9.645L253.904,-9.482L248.888,-9.482L248.954,-9.611L249.224,-10.144Z" style="fill:rgb(241,241,241);fill-rule:nonzero;"/>
                <path d="M282.733,-21.597C282.609,-23.217 281.256,-24.494 279.603,-24.494L264.32,-24.494C262.586,-24.494 261.18,-23.088 261.18,-21.354C261.18,-20.635 261.421,-19.974 261.827,-19.445C262.401,-18.696 263.304,-18.214 264.32,-18.214L268.821,-18.214L268.821,-3.14C268.821,-1.406 270.227,0.001 271.961,0.001C273.696,0.001 275.102,-1.406 275.102,-3.14L275.102,-18.214L279.603,-18.214C281.337,-18.214 282.743,-19.619 282.743,-21.354C282.743,-21.436 282.739,-21.516 282.733,-21.597Z" style="fill:rgb(241,241,241);fill-rule:nonzero;"/>
                <path d="M288.08,-24.494C286.346,-24.494 284.94,-23.088 284.94,-21.354L284.94,-3.14C284.94,-1.406 286.346,0 288.08,0C289.815,0 291.22,-1.406 291.22,-3.14L291.22,-21.354C291.22,-23.088 289.815,-24.494 288.08,-24.494Z" style="fill:rgb(241,241,241);fill-rule:nonzero;"/>
                <path d="M311.114,-7.522C310.696,-7.13 310.233,-6.802 309.737,-6.54C309.708,-6.525 309.679,-6.511 309.65,-6.496C309.43,-6.385 309.203,-6.286 308.972,-6.201C308.855,-6.158 308.737,-6.118 308.618,-6.082L308.617,-6.082C308.498,-6.046 308.377,-6.013 308.256,-5.984C307.78,-5.872 307.29,-5.813 306.792,-5.813C306.645,-5.813 306.499,-5.82 306.354,-5.829C306.143,-5.844 305.935,-5.869 305.731,-5.903C303.837,-6.225 302.229,-7.391 301.307,-8.999C301.253,-9.094 301.2,-9.191 301.151,-9.289C301.15,-9.29 301.149,-9.291 301.148,-9.293C301.099,-9.392 301.052,-9.491 301.007,-9.592C300.748,-10.18 300.575,-10.814 300.506,-11.479C300.499,-11.543 300.495,-11.607 300.491,-11.671C300.48,-11.824 300.472,-11.977 300.472,-12.132C300.472,-12.323 300.482,-12.511 300.499,-12.697C300.521,-12.948 300.557,-13.193 300.608,-13.435C300.673,-13.74 300.758,-14.037 300.865,-14.324C300.937,-14.518 301.018,-14.707 301.107,-14.891C301.25,-15.182 301.413,-15.46 301.597,-15.724C301.662,-15.819 301.731,-15.911 301.802,-16.003C301.804,-16.006 301.807,-16.009 301.809,-16.013C301.88,-16.103 301.953,-16.191 302.028,-16.278C302.218,-16.496 302.423,-16.701 302.641,-16.891C302.722,-16.962 302.805,-17.031 302.89,-17.098C302.891,-17.098 302.892,-17.099 302.892,-17.099C302.977,-17.166 303.064,-17.231 303.152,-17.294C304.181,-18.021 305.437,-18.451 306.792,-18.451C306.815,-18.451 306.838,-18.45 306.861,-18.45C306.92,-18.449 306.978,-18.449 307.037,-18.447C307.59,-18.425 308.131,-18.332 308.651,-18.173C309.587,-17.886 310.45,-17.382 311.173,-16.686C312.422,-15.483 314.41,-15.522 315.613,-16.772C316.816,-18.021 316.778,-20.009 315.528,-21.212C313.169,-23.482 310.066,-24.731 306.792,-24.731C305.329,-24.731 303.925,-24.481 302.618,-24.02C302.388,-23.939 302.161,-23.849 301.937,-23.755C301.911,-23.744 301.884,-23.734 301.857,-23.722C301.751,-23.677 301.645,-23.63 301.54,-23.581C300.523,-23.113 299.579,-22.514 298.73,-21.804C298.294,-21.441 297.882,-21.049 297.5,-20.631C297.496,-20.627 297.492,-20.624 297.489,-20.62C297.299,-20.411 297.117,-20.197 296.941,-19.976C296.874,-19.892 296.809,-19.808 296.744,-19.722C296.727,-19.7 296.71,-19.677 296.693,-19.655C296.632,-19.572 296.57,-19.49 296.511,-19.406C296.212,-18.985 295.94,-18.545 295.693,-18.088C295.538,-17.8 295.394,-17.507 295.262,-17.206L295.261,-17.206C295.053,-16.734 294.873,-16.248 294.723,-15.748C294.692,-15.647 294.663,-15.545 294.635,-15.442C294.624,-15.402 294.614,-15.362 294.603,-15.322C294.581,-15.235 294.558,-15.149 294.537,-15.062C294.448,-14.689 294.377,-14.311 294.321,-13.926C294.317,-13.894 294.312,-13.862 294.308,-13.83C294.245,-13.366 294.208,-12.895 294.198,-12.417C294.195,-12.324 294.192,-12.232 294.192,-12.139L294.192,-12.131C294.192,-10.981 294.347,-9.865 294.638,-8.805C294.67,-8.688 294.703,-8.573 294.739,-8.458L294.739,-8.456C295.005,-7.586 295.363,-6.757 295.801,-5.979C295.801,-5.977 295.802,-5.976 295.802,-5.975C296.333,-5.031 296.982,-4.163 297.73,-3.389C298.197,-2.904 298.703,-2.455 299.242,-2.05C301.348,-0.47 303.962,0.469 306.792,0.469C310.007,0.469 313.068,-0.743 315.412,-2.942C316.677,-4.129 316.74,-6.116 315.554,-7.381C314.366,-8.646 312.379,-8.709 311.114,-7.522Z" style="fill:rgb(241,241,241);fill-rule:nonzero;"/>
            </g>
        </g>
    </g>
</svg>
